<?xml version="1.0" encoding="utf-8"?>
<!-- Generator: Adobe Illustrator 23.0.5, SVG Export Plug-In . SVG Version: 6.00 Build 0)  -->
<svg version="1.1" id="Layer_1" xmlns="http://www.w3.org/2000/svg" xmlns:xlink="http://www.w3.org/1999/xlink" x="0px" y="0px"
	 viewBox="0 0 14400 14400" style="enable-background:new 0 0 14400 14400;" xml:space="preserve">
<style type="text/css">
	.st0{fill:#F5F5F5;}
	.st1{fill:#0096D4;}
</style>
<g>
	<g>
		<g>
			<path class="st0" d="M7183,7195.42c2.25-9.11,11.47-14.67,20.58-12.42c9.11,2.25,14.67,11.47,12.42,20.58
				c-2.26,9.11-11.47,14.67-20.58,12.42C7186.3,7213.74,7180.75,7204.53,7183,7195.42"/>
		</g>
		<path class="st1" d="M7205.94,7197.01l-1.22-2.11h2.44L7205.94,7197.01z M7204.71,7203.69l1.22-2.11l1.22,2.11H7204.71z
			 M7202.08,7203.69h-5.16l-2.54-4.39l2.54-4.4h5.16l2.54,4.4L7202.08,7203.69z M7199.5,7208.16l-1.26-2.19h2.52L7199.5,7208.16z
			 M7193.06,7197l-1.22-2.11h2.44L7193.06,7197z M7191.85,7203.69l1.22-2.11l1.22,2.11H7191.85z M7199.5,7190.43l1.26,2.19h-2.52
			L7199.5,7190.43z M7207.25,7199.29l3.85-6.67h-7.71l-3.9-6.75l-3.9,6.75h-7.71l0.99,1.71l2.87,4.97l-3.86,6.68h1.98h5.73l3.9,6.75
			l3.9-6.75h7.71L7207.25,7199.29z"/>
		<g>
			<defs>
				<path id="SVGID_5_" d="M7199.51,7191.78c0.18-0.13,0.36-0.27,0.54-0.4l-0.54-0.94V7191.78z"/>
			</defs>
			<clipPath id="SVGID_1_">
				<use xlink:href="#SVGID_5_"  style="overflow:visible;"/>
			</clipPath>
		</g>
	</g>
</g>
</svg>
