<!-- Generated by IcoMoon.io -->
<svg version="1.1" xmlns="http://www.w3.org/2000/svg" width="512" height="512" viewBox="0 0 512 512">
<title></title>
<g id="icomoon-ignore">
</g>
<path d="M112 220h108l-40.368-40.368c20.399-20.398 47.52-31.632 76.368-31.632s55.969 11.234 76.368 31.632c20.397 20.399 31.632 47.52 31.632 76.368s-11.235 55.969-31.632 76.368c-20.399 20.397-47.52 31.632-76.368 31.632s-55.969-11.235-76.368-31.632c-1.703-1.703-3.337-3.458-4.91-5.25l-27.090 23.704c26.394 30.14 65.156 49.178 108.367 49.178 79.53 0 144-64.471 144-144s-64.471-144-144-144c-39.764 0-75.76 16.123-101.817 42.183l-42.183-42.183v108z"></path>
</svg>
