<?xml version="1.0" encoding="utf-8"?>
<!-- Generator: Adobe Illustrator 23.0.5, SVG Export Plug-In . SVG Version: 6.00 Build 0)  -->
<svg version="1.1" id="Layer_1" xmlns="http://www.w3.org/2000/svg" xmlns:xlink="http://www.w3.org/1999/xlink" x="0px" y="0px"
	 viewBox="0 0 14400 14400" style="enable-background:new 0 0 14400 14400;" xml:space="preserve">
<style type="text/css">
	.st0{fill:#E63138;}
	.st1{fill:#F4F1EE;}
	.st2{fill:#00528F;}
</style>
<g>
	<g>
		<g>
			<path class="st0" d="M7183,7195.42c2.25-9.11,11.47-14.67,20.58-12.42c9.11,2.25,14.67,11.47,12.42,20.58
				c-2.26,9.11-11.47,14.67-20.58,12.42C7186.3,7213.74,7180.75,7204.53,7183,7195.42"/>
			<path class="st1" d="M7183.49,7193.79h32.02c-1.85-5.18-6.18-9.37-11.93-10.79C7195.03,7180.88,7186.38,7185.65,7183.49,7193.79"
				/>
			<path class="st2" d="M7216.13,7202.99c0.01-0.04,0.02-0.07,0.02-0.11c0.01-0.06,0.03-0.13,0.04-0.19
				c0.01-0.04,0.01-0.07,0.02-0.11c0.01-0.07,0.02-0.13,0.03-0.2c0.01-0.03,0.01-0.07,0.02-0.1c0.01-0.08,0.03-0.16,0.04-0.24
				c0-0.02,0.01-0.03,0.01-0.05c0.01-0.1,0.03-0.2,0.04-0.29c0-0.03,0.01-0.05,0.01-0.08c0.01-0.07,0.02-0.14,0.03-0.22
				c0-0.03,0.01-0.07,0.01-0.1c0.01-0.06,0.01-0.13,0.02-0.19c0-0.04,0.01-0.07,0.01-0.11c0.01-0.07,0.01-0.13,0.02-0.2
				c0-0.03,0.01-0.07,0.01-0.1c0.01-0.08,0.01-0.15,0.01-0.22c0-0.02,0-0.05,0-0.07c0-0.1,0.01-0.2,0.01-0.29c0-0.02,0-0.03,0-0.05
				c0-0.08,0-0.16,0.01-0.24c0-0.03,0-0.06,0-0.09c0-0.07,0-0.13,0-0.2c0-0.03,0-0.07,0-0.1c0-0.07,0-0.13,0-0.2
				c0-0.03,0-0.06,0-0.1c0-0.07,0-0.14-0.01-0.22c0-0.02,0-0.05,0-0.07c-0.01-0.19-0.02-0.39-0.03-0.58c0-0.03,0-0.05-0.01-0.08
				c-0.01-0.07-0.01-0.14-0.02-0.21c0-0.03-0.01-0.06-0.01-0.09c-0.01-0.07-0.01-0.13-0.02-0.2c0-0.03-0.01-0.06-0.01-0.09
				c-0.01-0.07-0.02-0.14-0.03-0.21c0-0.02-0.01-0.05-0.01-0.07c-0.02-0.19-0.05-0.38-0.08-0.58c0-0.02-0.01-0.03-0.01-0.05
				c-0.01-0.08-0.03-0.15-0.04-0.23c0-0.03-0.01-0.05-0.02-0.08c-0.01-0.07-0.03-0.14-0.04-0.21c-0.01-0.03-0.01-0.05-0.02-0.08
				c-0.01-0.07-0.03-0.14-0.04-0.21c-0.01-0.02-0.01-0.05-0.02-0.07c-0.02-0.09-0.04-0.17-0.06-0.26l0-0.02
				c-0.02-0.09-0.04-0.18-0.07-0.27h0c-0.13-0.5-0.28-0.99-0.45-1.47h-32.02c-0.19,0.53-0.35,1.07-0.49,1.63
				c-0.56,2.28-0.64,4.57-0.29,6.75c0,0.01,0,0.02,0,0.03c0.01,0.08,0.03,0.16,0.04,0.24c0,0.02,0.01,0.03,0.01,0.05
				c0.01,0.07,0.03,0.15,0.04,0.22c0,0.02,0.01,0.04,0.01,0.07c0.01,0.07,0.03,0.14,0.04,0.21c0.01,0.03,0.01,0.05,0.02,0.08
				c0.01,0.07,0.03,0.13,0.04,0.2c0.01,0.03,0.01,0.06,0.02,0.09c0.01,0.06,0.03,0.12,0.04,0.19c0.01,0.05,0.02,0.09,0.04,0.14
				c0.02,0.07,0.04,0.14,0.05,0.21c0.02,0.07,0.04,0.14,0.06,0.21c0.01,0.03,0.02,0.06,0.03,0.09c0.02,0.06,0.04,0.13,0.06,0.19
				c0.01,0.03,0.02,0.06,0.03,0.09c0.02,0.06,0.04,0.13,0.06,0.19c0.01,0.03,0.02,0.06,0.03,0.09c0.02,0.06,0.04,0.13,0.06,0.19
				c0.01,0.03,0.02,0.06,0.03,0.09c0.02,0.06,0.05,0.13,0.07,0.19c0.01,0.02,0.01,0.03,0.02,0.05h0c0.01,0.04,0.03,0.08,0.04,0.12
				h31.89c0.01-0.04,0.03-0.08,0.04-0.12h0c0.04-0.1,0.07-0.2,0.1-0.3c0-0.01,0.01-0.02,0.01-0.03c0.04-0.13,0.09-0.26,0.13-0.4
				c0.01-0.02,0.01-0.04,0.02-0.06c0.04-0.12,0.07-0.25,0.11-0.38c0.01-0.03,0.02-0.05,0.02-0.08c0.04-0.15,0.08-0.3,0.12-0.45
				c0.02-0.1,0.05-0.2,0.07-0.29c0.01-0.03,0.01-0.06,0.02-0.09C7216.1,7203.13,7216.12,7203.06,7216.13,7202.99"/>
		</g>
	</g>
</g>
</svg>
