<?xml version="1.0" encoding="utf-8"?>
<!-- Generator: Adobe Illustrator 23.0.5, SVG Export Plug-In . SVG Version: 6.00 Build 0)  -->
<svg version="1.1" id="Layer_1" xmlns="http://www.w3.org/2000/svg" xmlns:xlink="http://www.w3.org/1999/xlink" x="0px" y="0px"
	 viewBox="0 0 14400 14400" style="enable-background:new 0 0 14400 14400;" xml:space="preserve">
<style type="text/css">
	.st0{fill:#F5F5F5;}
	.st1{fill:#E42918;}
	.st2{fill:#24356B;}
</style>
<g>
	<g>
		<path class="st0" d="M7183,7195.42c2.25-9.11,11.47-14.67,20.58-12.41c9.11,2.25,14.67,11.47,12.42,20.58
			c-2.26,9.11-11.47,14.67-20.58,12.42C7186.3,7213.74,7180.75,7204.53,7183,7195.42"/>
		<path class="st1" d="M7215.22,7193.04h-13.17v2.6h14C7215.85,7194.75,7215.57,7193.88,7215.22,7193.04 M7211.86,7187.83h-9.81v2.6
			h11.82C7213.29,7189.5,7212.62,7188.63,7211.86,7187.83 M7187.22,7211.26h24.55c0.76-0.79,1.45-1.66,2.05-2.6h-28.64
			C7185.77,7209.58,7186.46,7210.46,7187.22,7211.26 M7203.58,7183c-0.51-0.13-1.02-0.23-1.53-0.31v2.53h6.68
			C7207.19,7184.23,7205.47,7183.47,7203.58,7183 M7216.45,7198.24h-14.4v2.6h14.39C7216.52,7199.97,7216.52,7199.1,7216.45,7198.24
			 M7183.82,7206.05h31.37c0.33-0.79,0.6-1.61,0.81-2.47c0.01-0.04,0.02-0.09,0.03-0.13h-33.06
			C7183.18,7204.34,7183.47,7205.21,7183.82,7206.05 M7195.42,7216c1.01,0.25,2.01,0.4,3.01,0.47h2.16c2.88-0.18,5.62-1.1,8-2.6
			h-18.19C7191.91,7214.81,7193.59,7215.55,7195.42,7216"/>
		<path class="st2" d="M7200.76,7199.89l-0.37-0.27l-0.37,0.27l0.14-0.43l-0.37-0.27h0.45l0.14-0.43l0.14,0.43h0.45l-0.37,0.27
			L7200.76,7199.89z M7198.96,7186.19l0.14,0.43l-0.37-0.27l-0.37,0.27l0.14-0.43l-0.37-0.27h0.45l0.14-0.43l0.14,0.43h0.45
			L7198.96,7186.19z M7198.96,7190.11l0.14,0.43l-0.37-0.27l-0.37,0.27l0.14-0.43l-0.37-0.27h0.45l0.14-0.43l0.14,0.43h0.45
			L7198.96,7190.11z M7198.93,7193.94l0.14,0.43l-0.37-0.27l-0.37,0.27l0.14-0.43l-0.37-0.27h0.45l0.14-0.43l0.14,0.43h0.45
			L7198.93,7193.94z M7199.03,7198.16l-0.37-0.27l-0.37,0.27l0.14-0.43l-0.37-0.27h0.45l0.14-0.43l0.14,0.43h0.46l-0.37,0.27
			L7199.03,7198.16z M7197.23,7188.09l0.14,0.43l-0.37-0.27l-0.37,0.27l0.14-0.43l-0.37-0.27h0.45l0.14-0.43l0.14,0.43h0.45
			L7197.23,7188.09z M7197.23,7191.88l0.14,0.43l-0.37-0.27l-0.37,0.27l0.14-0.43l-0.37-0.27h0.45l0.14-0.43l0.14,0.43h0.45
			L7197.23,7191.88z M7197.23,7195.76l0.14,0.43l-0.37-0.27l-0.37,0.27l0.14-0.43l-0.37-0.27h0.45l0.14-0.43l0.14,0.43h0.45
			L7197.23,7195.76z M7197.37,7199.89l-0.37-0.27l-0.37,0.27l0.14-0.43l-0.37-0.27h0.45l0.14-0.43l0.14,0.43h0.45l-0.37,0.27
			L7197.37,7199.89z M7195.56,7186.19l0.14,0.43l-0.37-0.27l-0.37,0.27l0.14-0.43l-0.37-0.27h0.45l0.14-0.43l0.14,0.43h0.45
			L7195.56,7186.19z M7195.56,7190.11l0.14,0.43l-0.37-0.27l-0.37,0.27l0.14-0.43l-0.37-0.27h0.45l0.14-0.43l0.14,0.43h0.45
			L7195.56,7190.11z M7195.53,7193.94l0.14,0.43l-0.37-0.27l-0.37,0.27l0.14-0.43l-0.37-0.27h0.45l0.14-0.43l0.14,0.43h0.46
			L7195.53,7193.94z M7195.63,7198.16l-0.37-0.27l-0.37,0.27l0.14-0.43l-0.37-0.27h0.45l0.14-0.43l0.14,0.43h0.45l-0.37,0.27
			L7195.63,7198.16z M7193.83,7184.3l0.14,0.43l-0.37-0.27l-0.37,0.27l0.14-0.43l-0.37-0.27h0.45l0.14-0.43l0.14,0.43h0.46
			L7193.83,7184.3z M7193.83,7188.09l0.14,0.43l-0.37-0.27l-0.37,0.27l0.14-0.43l-0.37-0.27h0.45l0.14-0.43l0.14,0.43h0.46
			L7193.83,7188.09z M7193.83,7191.88l0.14,0.43l-0.37-0.27l-0.37,0.27l0.14-0.43l-0.37-0.27h0.45l0.14-0.43l0.14,0.43h0.46
			L7193.83,7191.88z M7193.83,7195.76l0.14,0.43l-0.37-0.27l-0.37,0.27l0.14-0.43l-0.37-0.27h0.45l0.14-0.43l0.14,0.43h0.46
			L7193.83,7195.76z M7193.97,7199.89l-0.37-0.27l-0.37,0.27l0.14-0.43l-0.37-0.27h0.45l0.14-0.43l0.14,0.43h0.46l-0.37,0.27
			L7193.97,7199.89z M7192.16,7186.06l0.14,0.43l-0.37-0.27l-0.37,0.27l0.14-0.43l-0.37-0.27h0.45l0.14-0.43l0.14,0.43h0.45
			L7192.16,7186.06z M7192.16,7189.97l0.14,0.43l-0.37-0.27l-0.37,0.27l0.14-0.43l-0.37-0.27h0.45l0.14-0.43l0.14,0.43h0.45
			L7192.16,7189.97z M7192.13,7193.8l0.14,0.43l-0.37-0.27l-0.37,0.27l0.14-0.43l-0.37-0.27h0.45l0.14-0.43l0.14,0.43h0.45
			L7192.13,7193.8z M7192.23,7198.03l-0.37-0.27l-0.37,0.27l0.14-0.43l-0.37-0.27h0.45l0.14-0.43l0.14,0.43h0.45l-0.37,0.27
			L7192.23,7198.03z M7190.43,7188.09l0.14,0.43l-0.37-0.27l-0.37,0.27l0.14-0.43l-0.37-0.27h0.45l0.14-0.43l0.14,0.43h0.45
			L7190.43,7188.09z M7190.43,7191.88l0.14,0.43l-0.37-0.27l-0.37,0.27l0.14-0.43l-0.37-0.27h0.45l0.14-0.43l0.14,0.43h0.45
			L7190.43,7191.88z M7190.43,7195.76l0.14,0.43l-0.37-0.27l-0.37,0.27l0.14-0.43l-0.37-0.27h0.45l0.14-0.43l0.14,0.43h0.45
			L7190.43,7195.76z M7190.57,7199.89l-0.37-0.27l-0.37,0.27l0.14-0.43l-0.37-0.27h0.45l0.14-0.43l0.14,0.43h0.45l-0.37,0.27
			L7190.57,7199.89z M7188.76,7189.93l0.14,0.43l-0.37-0.27l-0.37,0.27l0.14-0.43l-0.37-0.27h0.45l0.14-0.43l0.14,0.43h0.46
			L7188.76,7189.93z M7188.73,7193.77l0.14,0.43l-0.37-0.27l-0.37,0.27l0.14-0.43l-0.37-0.27h0.45l0.14-0.43l0.14,0.43h0.46
			L7188.73,7193.77z M7188.84,7197.99l-0.37-0.27l-0.37,0.27l0.14-0.43l-0.37-0.27h0.45l0.14-0.43l0.14,0.43h0.45l-0.37,0.27
			L7188.84,7197.99z M7196.86,7184.03l0.14-0.43l0.14,0.43h0.45l-0.37,0.27l0.14,0.43l-0.37-0.27l-0.37,0.27l0.14-0.43l-0.37-0.27
			H7196.86z M7200.26,7195.49l0.14-0.43l0.14,0.43h0.45l-0.37,0.27l0.14,0.43l-0.37-0.27l-0.37,0.27l0.14-0.43l-0.37-0.27H7200.26z
			 M7200.26,7191.61l0.14-0.43l0.14,0.43h0.45l-0.37,0.27l0.14,0.43l-0.37-0.27l-0.37,0.27l0.14-0.43l-0.37-0.27H7200.26z
			 M7200.26,7187.82l0.14-0.43l0.14,0.43h0.45l-0.37,0.27l0.14,0.43l-0.37-0.27l-0.37,0.27l0.14-0.43l-0.37-0.27H7200.26z
			 M7200.26,7184.03l0.14-0.43l0.14,0.43h0.45l-0.37,0.27l0.14,0.43l-0.37-0.27l-0.37,0.27l0.14-0.43l-0.37-0.27H7200.26z
			 M7187.03,7191.88l0.14,0.43l-0.37-0.27l-0.37,0.27l0.14-0.43l-0.37-0.27h0.45l0.14-0.43l0.14,0.43h0.46L7187.03,7191.88z
			 M7187.03,7195.76l0.14,0.43l-0.37-0.27l-0.37,0.27l0.14-0.43l-0.37-0.27h0.45l0.14-0.43l0.14,0.43h0.46L7187.03,7195.76z
			 M7187.17,7199.89l-0.37-0.27l-0.37,0.27l0.14-0.43l-0.37-0.27h0.45l0.14-0.43l0.14,0.43h0.46l-0.37,0.27L7187.17,7199.89z
			 M7185.33,7193.7l0.14,0.43l-0.37-0.27l-0.37,0.27l0.14-0.43l-0.37-0.27h0.45l0.14-0.43l0.14,0.43h0.45L7185.33,7193.7z
			 M7185.44,7197.92l-0.37-0.27l-0.37,0.27l0.14-0.43l-0.37-0.27h0.45l0.14-0.43l0.14,0.43h0.46l-0.37,0.27L7185.44,7197.92z
			 M7183.77,7199.89l-0.37-0.27l-0.37,0.27l0.14-0.43l-0.37-0.27h0.45l0.14-0.43l0.14,0.43h0.45l-0.37,0.27L7183.77,7199.89z
			 M7202.05,7182.7c-0.17-0.03-1.41-0.16-1.57-0.18l-3.05,0.11c-3.17,0.39-6.14,1.67-8.58,3.63l0.06,0.19l-0.16-0.12
			c-0.56,0.46-1.1,0.95-1.6,1.48h0.25l-0.37,0.27l0.14,0.43l-0.37-0.27l-0.15,0.11c-0.34,0.39-0.67,0.81-0.97,1.23h0.05l-0.11,0.08
			c-0.07,0.1-0.15,0.21-0.22,0.32l0.1,0.3l-0.2-0.15c-1.03,1.57-1.82,3.34-2.3,5.27c-0.01,0.02-0.01,0.05-0.02,0.08h0.28l0.14-0.43
			l0.14,0.43h0.45l-0.37,0.27l0.14,0.43l-0.37-0.27l-0.37,0.27l0.14-0.43l-0.22-0.16c-0.42,1.77-0.54,3.54-0.4,5.27h19.5V7182.7z"/>
	</g>
</g>
</svg>
